# xmcd
#
# Track frame offsets:
#	150
#	17052
#	33233
#	78583
#	101671
#	119894
#	140789
#	156167
#	173220
#	192816
#	209965
#	222634
#	239282
#	259936
#
# Disc length: 3669 seconds
#
# Revision: 1
# Processed by: cddbd v1.5.2PL0 Copyright (c) Steve Scherf et al.
# Submitted via: audiograbber 1.83.01
#
DISCID=db0e530e
DTITLE=Zac Brown Band - You Get What You Give
DYEAR=2010
DGENRE=Country Rock
TTITLE0=As She's Walking Away
TTITLE1=Keep Me in Mind
TTITLE2=Who Knows
TTITLE3=Martin
TTITLE4=Make This Day
TTITLE5=Let it Go
TTITLE6=Knee Deep
TTITLE7=No Hurry
TTITLE8=I Play the Road
TTITLE9=Cold Hearted
TTITLE10=Whiskey's Gone
TTITLE11=Quiet Your Mind
TTITLE12=Colder Weather
TTITLE13=Settle Me Down
EXTD=
EXTT0=
EXTT1=
EXTT2=
EXTT3=
EXTT4=
EXTT5=
EXTT6=
EXTT7=
EXTT8=
EXTT9=
EXTT10=
EXTT11=
EXTT12=
EXTT13=
PLAYORDER=
